<?xml version="1.0" standalone="no"?>
<!DOCTYPE svg PUBLIC "-//W3C//DTD SVG 20010904//EN"
 "http://www.w3.org/TR/2001/REC-SVG-20010904/DTD/svg10.dtd">
<svg version="1.0" xmlns="http://www.w3.org/2000/svg"
 width="63.000000pt" height="60.000000pt" viewBox="0 0 63.000000 60.000000"
 preserveAspectRatio="xMidYMid meet">

<g transform="translate(0.000000,60.000000) scale(0.100000,-0.100000)"
fill="#000000" stroke="none">
<path d="M217 583 c-4 -3 -7 -21 -7 -40 l0 -33 -51 0 -50 0 3 -185 c3 -213 3
-212 91 -224 31 -4 66 -16 77 -26 19 -18 21 -18 40 0 11 10 46 22 77 26 88 12
88 11 91 224 l3 184 -53 3 -53 3 -3 38 -3 37 -78 0 c-43 0 -81 -3 -84 -7z
m153 -43 l0 -30 -70 0 -70 0 0 30 0 30 70 0 70 0 0 -30z m-155 -57 c0 -6 3
-15 8 -19 4 -4 7 2 7 14 0 20 5 22 70 22 66 0 70 -1 71 -22 l0 -23 9 23 c8 18
17 22 50 22 l40 0 0 -179 c0 -131 -3 -181 -12 -189 -7 -6 -39 -15 -72 -21 -32
-6 -65 -16 -72 -22 -9 -7 -19 -6 -36 4 -13 8 -45 17 -72 21 -27 3 -55 11 -62
17 -11 9 -14 52 -14 191 l0 179 43 -3 c23 -2 42 -8 42 -15z"/>
<path d="M230 375 c-10 -12 -10 -21 -2 -40 20 -43 66 -26 60 21 -4 34 -37 45
-58 19z m48 -19 c4 -19 -16 -39 -30 -30 -4 3 -8 16 -8 30 0 19 5 25 17 22 10
-2 19 -12 21 -22z"/>
<path d="M296 306 c-27 -42 -45 -80 -42 -83 7 -8 3 -13 55 70 23 38 41 73 39
79 -2 6 -26 -24 -52 -66z"/>
<path d="M326 277 c-11 -8 -17 -23 -14 -38 2 -19 9 -24 33 -24 24 0 31 5 33
23 3 22 -13 52 -27 52 -4 0 -15 -6 -25 -13z m39 -32 c0 -11 -8 -21 -17 -23
-14 -3 -18 3 -18 23 0 20 4 26 18 23 9 -2 17 -12 17 -23z"/>
</g>
</svg>
